<?xml version="1.0" encoding="UTF-8" standalone="no"?>
<!-- Created with Inkscape (http://www.inkscape.org/) -->

<svg
   xmlns:osb="http://www.openswatchbook.org/uri/2009/osb"
   xmlns:dc="http://purl.org/dc/elements/1.1/"
   xmlns:cc="http://creativecommons.org/ns#"
   xmlns:rdf="http://www.w3.org/1999/02/22-rdf-syntax-ns#"
   xmlns:svg="http://www.w3.org/2000/svg"
   xmlns="http://www.w3.org/2000/svg"
   xmlns:xlink="http://www.w3.org/1999/xlink"
   xmlns:sodipodi="http://sodipodi.sourceforge.net/DTD/sodipodi-0.dtd"
   xmlns:inkscape="http://www.inkscape.org/namespaces/inkscape"
   width="48px"
   height="48px"
   id="svg4325"
   version="1.1"
   inkscape:version="0.48.2 r9819"
   sodipodi:docname="OldDrawing.svg"
   inkscape:export-filename="C:\Users\Thomas-Lt\Pictures\Photoshop\OldDrawing.png"
   inkscape:export-xdpi="90"
   inkscape:export-ydpi="90">
  <defs
     id="defs4327">
    <linearGradient
       inkscape:collect="always"
       id="linearGradient5220"
       osb:paint="gradient">
      <stop
         style="stop-color:#000000;stop-opacity:1;"
         offset="0"
         id="stop5222" />
      <stop
         style="stop-color:#000000;stop-opacity:0;"
         offset="1"
         id="stop5224" />
    </linearGradient>
    <linearGradient
       inkscape:collect="always"
       xlink:href="#linearGradient5220"
       id="linearGradient5228"
       x1="6.5244379"
       y1="29.289009"
       x2="33.288711"
       y2="29.289009"
       gradientUnits="userSpaceOnUse" />
  </defs>
  <sodipodi:namedview
     id="base"
     pagecolor="#ffffff"
     bordercolor="#666666"
     borderopacity="1.0"
     inkscape:pageopacity="0.0"
     inkscape:pageshadow="2"
     inkscape:zoom="5.6568542"
     inkscape:cx="20.04008"
     inkscape:cy="20.373093"
     inkscape:current-layer="layer1"
     showgrid="true"
     inkscape:grid-bbox="true"
     inkscape:document-units="px"
     inkscape:window-width="708"
     inkscape:window-height="535"
     inkscape:window-x="9"
     inkscape:window-y="17"
     inkscape:window-maximized="0" />
  <metadata
     id="metadata4330">
    <rdf:RDF>
      <cc:Work
         rdf:about="">
        <dc:format>image/svg+xml</dc:format>
        <dc:type
           rdf:resource="http://purl.org/dc/dcmitype/StillImage" />
        <dc:title></dc:title>
      </cc:Work>
    </rdf:RDF>
  </metadata>
  <g
     id="layer1"
     inkscape:label="Layer 1"
     inkscape:groupmode="layer">
    <g
       id="g4250"
       transform="matrix(0.07994937,-6.9215084e-4,6.8541347e-4,0.08073566,-6.9809653,-17.216905)">
      <path
         inkscape:connector-curvature="0"
         id="path2985"
         d="m 288.57143,746.6479 185.71429,-460"
         style="fill:none;stroke:#000000;stroke-width:1px;stroke-linecap:butt;stroke-linejoin:miter;stroke-opacity:1" />
      <path
         sodipodi:nodetypes="cc"
         inkscape:connector-curvature="0"
         id="path2987"
         d="M 477.03278,749.36169 285.20887,283.29217"
         style="fill:none;stroke:#000000;stroke-width:1.0489285px;stroke-linecap:butt;stroke-linejoin:miter;stroke-opacity:1" />
      <path
         inkscape:connector-curvature="0"
         id="path2985-4"
         d="M 614.76382,611.76036 151.99466,423.90826"
         style="fill:none;stroke:#000000;stroke-width:1.00876188px;stroke-linecap:butt;stroke-linejoin:miter;stroke-opacity:1" />
      <path
         inkscape:connector-curvature="0"
         id="path2987-0"
         d="m 617.38655,421.15197 -468.55,190.02502"
         style="fill:none;stroke:#000000;stroke-width:1.0467732px;stroke-linecap:butt;stroke-linejoin:miter;stroke-opacity:1" />
      <path
         inkscape:connector-curvature="0"
         id="path3024"
         d="m 284.86558,284.05451 97.15536,-49.91333 92.09518,52.96924"
         style="fill:none;stroke:#000000;stroke-width:1.00512707px;stroke-linecap:butt;stroke-linejoin:miter;stroke-opacity:1" />
      <path
         inkscape:connector-curvature="0"
         id="path3024-9"
         d="m 476.76464,749.00976 -96.66506,47.49895 -91.63042,-50.40704"
         style="fill:none;stroke:#000000;stroke-width:0.97803885px;stroke-linecap:butt;stroke-linejoin:miter;stroke-opacity:1" />
      <path
         inkscape:connector-curvature="0"
         id="path3024-9-4"
         d="m 617.15311,420.72726 50.65858,98.15725 -53.7601,93.04488"
         style="fill:none;stroke:#000000;stroke-width:1.01781082px;stroke-linecap:butt;stroke-linejoin:miter;stroke-opacity:1" />
      <path
         inkscape:connector-curvature="0"
         id="path3024-9-8"
         d="m 148.92582,611.37708 -47.87956,-96.43352 50.81095,-91.41093"
         style="fill:none;stroke:#000000;stroke-width:0.98077291px;stroke-linecap:butt;stroke-linejoin:miter;stroke-opacity:1" />
      <path
         transform="matrix(1.1223036,0,0,1.3850457,-35.472145,-123.36569)"
         d="m 632.85715,460.93362 c 0,115.19082 -115.76638,208.57143 -258.57144,208.57143 -142.80507,0 -258.57145,-93.38061 -258.57145,-208.57143 0,-115.19081 115.76638,-208.57142 258.57145,-208.57142 142.80506,0 258.57144,93.38061 258.57144,208.57142 z"
         sodipodi:ry="208.57143"
         sodipodi:rx="258.57144"
         sodipodi:cy="460.93362"
         sodipodi:cx="374.28571"
         id="path3082"
         style="opacity:0.79646014;fill:none;stroke:#000000;stroke-width:3.16577387;stroke-linecap:butt;stroke-linejoin:miter;stroke-miterlimit:4;stroke-opacity:1;stroke-dasharray:none;marker-start:none"
         sodipodi:type="arc" />
      <path
         transform="matrix(1.1461777,0,0,1.4186063,-44.718472,-139.3729)"
         d="m 632.85715,460.93362 c 0,115.19082 -115.76638,208.57143 -258.57144,208.57143 -142.80507,0 -258.57145,-93.38061 -258.57145,-208.57143 0,-115.19081 115.76638,-208.57142 258.57145,-208.57142 142.80506,0 258.57144,93.38061 258.57144,208.57142 z"
         sodipodi:ry="208.57143"
         sodipodi:rx="258.57144"
         sodipodi:cy="460.93362"
         sodipodi:cx="374.28571"
         id="path3082-2"
         style="opacity:0.79646014;fill:none;stroke:#000000;stroke-width:3.16577387;stroke-linecap:butt;stroke-linejoin:miter;stroke-miterlimit:4;stroke-opacity:1;stroke-dasharray:none;marker-start:none"
         sodipodi:type="arc" />
      <path
         inkscape:connector-curvature="0"
         id="path4075"
         d="m 381.42857,515.93361 -74.3422,-229.26706 74.75129,-51.51778 66.67007,55.55839 z"
         style="fill:none;stroke:#000000;stroke-width:1px;stroke-linecap:butt;stroke-linejoin:miter;stroke-opacity:1" />
      <path
         inkscape:connector-curvature="0"
         id="path4077"
         d="m 380.82751,516.98133 231.32493,-74.75128 54.54824,76.77159 -53.53808,69.70052 z"
         style="fill:none;stroke:#000000;stroke-width:1px;stroke-linecap:butt;stroke-linejoin:miter;stroke-opacity:1" />
      <path
         inkscape:connector-curvature="0"
         id="path4079"
         d="m 380.82751,515.97118 -70.71068,226.27417 69.70053,52.52793 79.80205,-52.52793 z"
         style="fill:none;stroke:#000000;stroke-width:1px;stroke-linecap:butt;stroke-linejoin:miter;stroke-opacity:1" />
      <path
         inkscape:connector-curvature="0"
         id="path4081"
         d="M 100.0051,514.96103 154.55334,588.70216 380.82751,515.97118 156.57364,443.2402 z"
         style="fill:none;stroke:#000000;stroke-width:1px;stroke-linecap:butt;stroke-linejoin:miter;stroke-opacity:1" />
      <path
         inkscape:connector-curvature="0"
         id="path4093"
         d="m 133.89218,579.37 c -8.31479,-16.88958 -15.11781,-30.90764 -15.11781,-31.15123 0,-1.98104 3.59259,2.46073 17.66759,21.8437 8.90089,12.25763 16.57911,22.28484 17.06271,22.28272 0.48357,-0.002 37.47791,-11.97921 82.20962,-26.61573 44.73171,-14.63654 81.50184,-26.46447 81.71139,-26.28431 0.20956,0.18017 0.0116,0.68312 -0.43961,1.11767 -0.59623,0.57407 -152.40006,63.43564 -166.16837,68.80991 -1.65482,0.64594 -3.08652,-1.89195 -16.92552,-30.00273 z"
         style="fill:#000000;stroke:#000000;stroke-width:3.49653888;stroke-miterlimit:4;stroke-opacity:1;stroke-dasharray:none" />
      <path
         inkscape:connector-curvature="0"
         id="path4095"
         d="m 323.81471,765.26445 c -18.05742,-10.07117 -32.94406,-18.6591 -33.08141,-19.08431 -0.43257,-1.33906 64.21403,-162.54161 65.33543,-162.9202 0.5873,-0.19828 1.06781,0.13295 1.06781,0.73605 0,0.60311 -10.86709,36.2737 -24.1491,79.26797 -13.28201,42.99426 -24.20043,78.68453 -24.26314,79.3117 -0.0627,0.62715 10.89358,9.56342 24.34734,19.85836 21.8502,16.71997 27.09009,21.26799 24.39168,21.171 -0.44932,-0.0162 -15.59119,-8.2694 -33.64861,-18.34057 z"
         style="fill:#000000;stroke:#000000;stroke-width:3.89412403;stroke-miterlimit:4;stroke-opacity:1;stroke-dasharray:none" />
      <path
         inkscape:connector-curvature="0"
         id="path4097"
         d="m 393.65604,787.20265 c 0,-0.6339 14.6408,-10.83098 32.53514,-22.66017 17.89432,-11.82918 32.53726,-22.13819 32.53987,-22.90891 0.002,-0.77074 -12.229,-36.63278 -27.18138,-79.69345 -14.95236,-43.06068 -26.85739,-78.62187 -26.45562,-79.02487 0.40177,-0.40302 1.18183,-0.26812 1.73347,0.29978 0.73395,0.75556 59.76519,143.34924 67.4402,162.90607 0.9736,2.48083 -0.38488,3.25828 -39.14377,22.40206 -22.08381,10.90762 -40.44837,19.83203 -40.81015,19.83203 -0.36176,0 -0.65776,-0.51864 -0.65776,-1.15254 z"
         style="fill:#000000;stroke:#000000;stroke-width:4.35977316;stroke-miterlimit:4;stroke-opacity:1;stroke-dasharray:none" />
      <path
         inkscape:connector-curvature="0"
         id="path4099"
         d="m 529.18355,575.56245 c -45.44068,-18.80768 -83.02291,-34.60641 -83.51605,-35.10831 -0.49316,-0.50189 -0.60102,-1.21342 -0.2397,-1.58118 0.36133,-0.36777 37.51125,10.91693 82.55537,25.07708 45.04413,14.16016 82.76304,25.8936 83.81979,26.07432 1.51784,0.25957 5.09212,-3.93266 17.01779,-19.95998 17.81266,-23.93903 20.54225,-27.33188 21.34579,-26.53252 0.73935,0.73548 -36.05644,65.65141 -37.40288,65.98696 -0.52839,0.13169 -38.13943,-15.14869 -83.58011,-33.95637 l 0,0 z"
         style="fill:#000000;stroke:#000000;stroke-width:3.82544732;stroke-miterlimit:4;stroke-opacity:1;stroke-dasharray:none" />
      <path
         inkscape:connector-curvature="0"
         id="path4101"
         d="m 633.93054,470.92287 c -11.24048,-15.84696 -20.78887,-29.02997 -21.21863,-29.29557 -0.42976,-0.26561 -38.83131,11.81583 -85.33678,26.84763 -46.50547,15.03181 -84.81515,27.07082 -85.13261,26.75336 -0.31746,-0.31746 -0.15293,-0.98517 0.36561,-1.48381 1.59485,-1.53362 173.29563,-70.8245 174.16683,-70.28607 0.75541,0.46688 39.41309,74.85 39.41309,75.83666 0,2.36724 -4.73355,-3.66674 -22.25751,-28.3722 z"
         style="fill:#000000;stroke:#000000;stroke-width:3.98707223;stroke-miterlimit:4;stroke-opacity:1;stroke-dasharray:none" />
      <path
         inkscape:connector-curvature="0"
         id="path4103"
         d="m 237.47982,468.31569 c -43.89113,-14.3073 -80.25662,-26.0242 -80.8122,-26.03756 -0.55559,-0.0134 -9.16536,10.40896 -19.13284,23.16071 -16.55249,21.1762 -21.1591,26.28837 -19.29922,21.41724 0.37123,-0.97227 8.16714,-15.25979 17.32425,-31.75005 l 16.64929,-29.98228 3.41827,1.42824 c 1.88005,0.78554 38.79414,15.78422 82.03131,33.3304 43.23717,17.54618 79.0373,32.31983 79.55584,32.83034 0.51856,0.51052 0.74584,1.08301 0.50508,1.27222 -0.24075,0.1892 -36.34865,-11.36196 -80.23978,-25.66926 z"
         style="fill:#000000;stroke:#000000;stroke-width:3.98707223;stroke-miterlimit:4;stroke-opacity:1;stroke-dasharray:none" />
      <path
         inkscape:connector-curvature="0"
         id="path4105"
         d="m 357.69297,454.19592 c -1.69828,-3.22483 -70.28825,-169.26559 -70.28825,-170.15189 0,-0.77193 66.14999,-35.19985 67.63318,-35.19985 2.50816,0 -2.77876,4.07805 -24.52802,18.91955 -13.79608,9.41434 -25.17303,17.18811 -25.28211,17.27505 -0.10907,0.087 12.27452,38.32957 27.51912,84.98363 15.24458,46.65404 27.71742,85.05979 27.71742,85.34609 0,1.21093 -1.9508,0.38553 -2.77134,-1.17258 z"
         style="fill:#000000;stroke:#000000;stroke-width:3.83177924;stroke-miterlimit:4;stroke-opacity:1;stroke-dasharray:none" />
      <path
         inkscape:connector-curvature="0"
         id="path4107"
         d="m 399.77182,457.37534 c 0.38289,-1.47372 11.95159,-39.18609 25.70823,-83.80525 13.75663,-44.61918 25.01206,-81.69834 25.01206,-82.39816 0,-0.69982 -11.28497,-10.35 -25.0777,-21.44485 -22.57814,-18.16178 -27.97453,-23.05372 -23.67134,-21.45852 2.47603,0.91787 68.85931,37.86605 70.18712,39.06534 1.03572,0.9355 -5.47982,17.31085 -34.42041,86.50829 -19.63386,46.94491 -36.31358,85.5475 -37.06604,85.78351 -1.05172,0.32989 -1.2071,-0.1905 -0.67192,-2.25036 l 0,0 z"
         style="fill:#000000;stroke:#000000;stroke-width:3.81513238;stroke-miterlimit:4;stroke-opacity:1;stroke-dasharray:none" />
      <path
         sodipodi:nodetypes="cccc"
         inkscape:connector-curvature="0"
         id="path4128"
         d="M 397.01146,234.16013 C 536.10458,258.5205 632.1487,338.59618 668.64022,495.74662 l 1.06941,-1.03805 0,0 -3.00895,6.11032 -48.48732,-88.89342 -223.24371,90.91373 91.92388,-219.2031 z"
         style="fill:none;stroke:#000000;stroke-width:1.04301715px;stroke-linecap:butt;stroke-linejoin:miter;stroke-opacity:1" />
      <path
         style="fill:#000000;fill-opacity:1;stroke:#000000;stroke-width:1.04301715px;stroke-linecap:butt;stroke-linejoin:miter;stroke-opacity:1"
         d="M 397.01146,234.16013 C 536.10458,258.5205 632.1487,338.59618 668.64022,495.74662 l 1.06941,-1.03805 0,0 -3.00895,6.11032 -48.48732,-88.89342 -223.24371,90.91373 91.92388,-219.2031 z"
         id="path4176"
         inkscape:connector-curvature="0"
         sodipodi:nodetypes="cccc" />
      <path
         style="fill:#000000;fill-opacity:1;stroke:#000000;stroke-width:1.03724194px;stroke-linecap:butt;stroke-linejoin:miter;stroke-opacity:1"
         d="M 99.002818,502.82479 C 123.27213,364.75157 203.04847,269.41169 359.61145,233.18776 l -1.03417,-1.06157 0,0 6.08748,2.98688 -88.56112,48.13179 90.57388,221.60678 -218.38368,-91.24985 z"
         id="path4176-6"
         inkscape:connector-curvature="0"
         sodipodi:nodetypes="cccc" />
      <path
         style="fill:#000000;fill-opacity:1;stroke:#000000;stroke-width:1.02954447px;stroke-linecap:butt;stroke-linejoin:miter;stroke-opacity:1"
         d="M 665.18143,533.10935 C 640.72826,668.118 560.3475,761.34179 402.59834,796.76172 l 1.04201,1.038 0,0 -6.13361,-2.92058 89.23208,-47.06349 -91.26009,-216.68816 220.03823,89.22454 z"
         id="path4176-6-9"
         inkscape:connector-curvature="0"
         sodipodi:nodetypes="cccc" />
      <path
         style="fill:#000000;fill-opacity:1;stroke:#000000;stroke-width:1.02183282px;stroke-linecap:butt;stroke-linejoin:miter;stroke-opacity:1"
         d="M 364.7033,797.29852 C 229.69074,773.211 136.46426,694.03218 101.0433,538.64186 l -1.03803,1.02643 0,0 2.92067,-6.04189 47.06485,87.89778 216.69443,-89.89547 -89.22713,216.74797 z"
         id="path4176-6-9-8"
         inkscape:connector-curvature="0"
         sodipodi:nodetypes="cccc" />
      <path
         inkscape:connector-curvature="0"
         id="path4239"
         d="m 381.83766,244.24015 -65.65991,44.44671 64.64976,209.10158 58.58885,-202.03051 z"
         style="fill:#000000;fill-opacity:1;stroke:#000000;stroke-width:1px;stroke-linecap:butt;stroke-linejoin:miter;stroke-opacity:1" />
      <path
         inkscape:connector-curvature="0"
         id="path4241"
         d="M 109.09647,514.96103 159.6041,453.34172 359.61431,514.96103 159.6041,579.61079 z"
         style="fill:#000000;fill-opacity:1;stroke:#000000;stroke-width:1px;stroke-linecap:butt;stroke-linejoin:miter;stroke-opacity:1" />
      <path
         inkscape:connector-curvature="0"
         id="path4243"
         d="m 319.2082,739.21489 62.62946,-207.08127 66.67007,205.06097 -66.67007,49.49747 z"
         style="fill:#000000;fill-opacity:1;stroke:#000000;stroke-width:1px;stroke-linecap:butt;stroke-linejoin:miter;stroke-opacity:1" />
      <path
         inkscape:connector-curvature="0"
         id="path4245"
         d="m 398.0001,515.97118 211.12188,-63.63961 48.48733,65.65992 -45.45687,61.6193 z"
         style="fill:#000000;fill-opacity:1;stroke:#000000;stroke-width:1px;stroke-linecap:butt;stroke-linejoin:miter;stroke-opacity:1" />
    </g>
    <text
       xml:space="preserve"
       style="font-size:51.60413742000000100px;font-style:normal;font-variant:normal;font-weight:bold;font-stretch:normal;line-height:125%;letter-spacing:0px;word-spacing:0px;opacity:1;fill:#ff6600;fill-opacity:1;stroke:#000000;font-family:BatangChe;-inkscape-font-specification:BatangChe Bold;stroke-opacity:1"
       x="6.7283692"
       y="47.778339"
       id="text3014"
       sodipodi:linespacing="125%"
       transform="scale(1.2097507,0.82661657)"><tspan
         sodipodi:role="line"
         id="tspan3016"
         x="6.7283692"
         y="47.778339"
         style="stroke:#000000;fill:#ff6600;stroke-opacity:1">M</tspan></text>
  </g>
</svg>
